<svg width="50" height="50" viewBox="0 0 50 50" fill="none" xmlns="http://www.w3.org/2000/svg">
<path d="M25 19.75C23.9616 19.75 22.9466 20.0579 22.0833 20.6348C21.2199 21.2117 20.547 22.0316 20.1496 22.9909C19.7523 23.9502 19.6483 25.0058 19.8509 26.0242C20.0535 27.0426 20.5535 27.9781 21.2877 28.7123C22.0219 29.4465 22.9574 29.9466 23.9758 30.1491C24.9942 30.3517 26.0498 30.2477 27.0091 29.8504C27.9684 29.453 28.7883 28.7801 29.3652 27.9167C29.9421 27.0534 30.25 26.0384 30.25 25C30.2486 23.6081 29.695 22.2735 28.7107 21.2893C27.7265 20.305 26.3919 19.7514 25 19.75ZM25 28.5C24.3078 28.5 23.6311 28.2947 23.0555 27.9101C22.4799 27.5256 22.0313 26.9789 21.7664 26.3394C21.5015 25.6999 21.4322 24.9961 21.5673 24.3172C21.7023 23.6383 22.0356 23.0146 22.5251 22.5251C23.0146 22.0356 23.6383 21.7023 24.3172 21.5673C24.9961 21.4322 25.6999 21.5015 26.3394 21.7664C26.9789 22.0313 27.5256 22.4799 27.9101 23.0555C28.2947 23.6311 28.5 24.3078 28.5 25C28.5 25.9283 28.1313 26.8185 27.4749 27.4749C26.8185 28.1313 25.9283 28.5 25 28.5ZM30.25 13.625H19.75C18.1261 13.6267 16.5692 14.2726 15.4209 15.4209C14.2726 16.5692 13.6267 18.1261 13.625 19.75V30.25C13.6267 31.8739 14.2726 33.4308 15.4209 34.5791C16.5692 35.7274 18.1261 36.3733 19.75 36.375H30.25C31.8739 36.3733 33.4308 35.7274 34.5791 34.5791C35.7274 33.4308 36.3733 31.8739 36.375 30.25V19.75C36.3733 18.1261 35.7274 16.5692 34.5791 15.4209C33.4308 14.2726 31.8739 13.6267 30.25 13.625ZM34.625 30.25C34.625 31.4103 34.1641 32.5231 33.3436 33.3436C32.5231 34.1641 31.4103 34.625 30.25 34.625H19.75C18.5897 34.625 17.4769 34.1641 16.6564 33.3436C15.8359 32.5231 15.375 31.4103 15.375 30.25V19.75C15.375 18.5897 15.8359 17.4769 16.6564 16.6564C17.4769 15.8359 18.5897 15.375 19.75 15.375H30.25C31.4103 15.375 32.5231 15.8359 33.3436 16.6564C34.1641 17.4769 34.625 18.5897 34.625 19.75V30.25ZM32 19.3125C32 19.5721 31.923 19.8258 31.7788 20.0417C31.6346 20.2575 31.4296 20.4258 31.1898 20.5251C30.9499 20.6244 30.686 20.6504 30.4314 20.5998C30.1768 20.5491 29.943 20.4241 29.7594 20.2406C29.5759 20.057 29.4509 19.8232 29.4002 19.5686C29.3496 19.314 29.3756 19.0501 29.4749 18.8102C29.5742 18.5704 29.7425 18.3654 29.9583 18.2212C30.1742 18.077 30.4279 18 30.6875 18C31.0356 18 31.3694 18.1383 31.6156 18.3844C31.8617 18.6306 32 18.9644 32 19.3125Z" fill="white"/>
<circle cx="25" cy="25" r="24" stroke="white" stroke-width="2"/>
</svg>
