<svg width="50" height="50" viewBox="0 0 50 50" fill="none" xmlns="http://www.w3.org/2000/svg">
<path d="M37.2034 18C36.305 18.4084 35.3367 18.6767 34.3334 18.805C35.36 18.1867 36.1534 17.2067 36.5267 16.0284C35.5584 16.6117 34.485 17.02 33.3534 17.2534C32.4317 16.25 31.1367 15.6667 29.6667 15.6667C26.925 15.6667 24.685 17.9067 24.685 20.6717C24.685 21.0684 24.7317 21.4534 24.8134 21.815C20.66 21.605 16.9617 19.61 14.5 16.5884C14.0684 17.3234 13.8234 18.1867 13.8234 19.0967C13.8234 20.835 14.6984 22.375 16.0517 23.25C15.2234 23.25 14.4534 23.0167 13.7767 22.6667V22.7017C13.7767 25.1284 15.5034 27.1584 17.79 27.6134C17.0559 27.8143 16.2851 27.8422 15.5384 27.695C15.8552 28.6896 16.4758 29.5598 17.3129 30.1834C18.1499 30.807 19.1614 31.1527 20.205 31.1717C18.4359 32.5722 16.243 33.3292 13.9867 33.3184C13.59 33.3184 13.1934 33.295 12.7967 33.2484C15.0134 34.6717 17.65 35.5 20.4734 35.5C29.6667 35.5 34.7184 27.87 34.7184 21.255C34.7184 21.0334 34.7184 20.8234 34.7067 20.6017C35.6867 19.9017 36.5267 19.015 37.2034 18Z" fill="white"/>
<circle cx="25" cy="25" r="24" stroke="white" stroke-width="2"/>
</svg>
